# File created by Blade
# Date/Time:  Thu Jan 22 18:06:27 2015
# Frame Rate: 120.000 fps
#------------------------------------------------------
:FULLY-SPECIFIED
:DEGREES
2942
root 0.274669 32.862878 -2.506204 6.573069 -9.527661 1.191794
RightUpLeg -17.936780 -11.421012 -2.989357
RightLeg 82.747613 -0.000000 -0.000000
RightFoot 0.214659 -9.796088 7.565457
RightToeBase -4.436315 -0.000000 0.000000
LeftUpLeg -1.798567 2.226230 -10.417892
LeftLeg 0.675185 -0.000000 -0.000000
LeftFoot -12.427623 9.599482 -5.784002
LeftToeBase 11.362958 -0.000000 -0.000000
Spine -8.567603 -1.962189 -4.023712
RightShoulder -17.567735 -16.834605 -19.924224
RightArm 24.775700 21.456777 54.192526
RightForeArm -4.460656 -0.000000 21.922724
RightHand 11.445559 0.000000 1.093817
RightHandThumb1 -24.326973 -0.000000 -32.862282
LeftShoulder -21.936862 5.601895 25.402801
LeftArm 7.689347 -42.044283 -51.458343
LeftForeArm 10.403257 -0.000000 66.682405
LeftHand -2.466416 -0.000000 34.514229
LeftHandThumb1 -26.253704 0.000000 33.147579
Head 13.179010 -2.639285 0.985052
2943
root 0.275219 32.861850 -2.502523 6.562300 -9.574532 1.192272
RightUpLeg -17.925301 -11.526894 -2.989917
RightLeg 82.756168 -0.000000 -0.000000
RightFoot 0.243936 -9.784084 7.515376
RightToeBase -4.502311 -0.000000 0.000000
LeftUpLeg -1.783386 2.256440 -10.423824
LeftLeg 0.675601 -0.000000 -0.000000
LeftFoot -12.452451 9.603814 -5.814351
LeftToeBase 11.369948 -0.000000 -0.000000
Spine -8.561747 -1.926188 -4.036208
RightShoulder -17.569905 -16.822407 -19.931694
RightArm 24.770922 21.423407 54.171388
RightForeArm -4.434922 -0.000000 21.906241
RightHand 11.457445 0.000000 1.053153
RightHandThumb1 -24.326973 -0.000000 -32.862282
LeftShoulder -21.954713 5.617563 25.385950
LeftArm 7.697715 -42.122008 -51.452367
LeftForeArm 10.428384 -0.000000 66.678180
LeftHand -2.497850 -0.000000 34.448120
LeftHandThumb1 -26.253704 0.000000 33.147579
Head 13.169866 -2.656582 0.979886
2944
root 0.276564 32.860726 -2.497896 6.546137 -9.625685 1.200119
RightUpLeg -17.914137 -11.613891 -2.999297
RightLeg 82.776899 -0.000000 -0.000000
RightFoot 0.172509 -9.772190 7.771803
RightToeBase -4.236834 -0.000000 0.000000
LeftUpLeg -1.761845 2.276251 -10.439638
LeftLeg 0.675874 -0.000000 -0.000000
LeftFoot -12.475221 9.630227 -5.857584
LeftToeBase 11.361908 -0.000000 -0.000000
Spine -8.556960 -1.901512 -4.054589
RightShoulder -17.549476 -16.824034 -19.935919
RightArm 24.773171 21.430672 54.165849
RightForeArm -4.443957 -0.000000 21.909438
RightHand 11.454459 -0.000000 1.070619
RightHandThumb1 -24.326973 -0.000000 -32.862282
LeftShoulder -21.983779 5.646306 25.374601
LeftArm 7.707522 -42.187513 -51.454817
LeftForeArm 10.446952 -0.000000 66.658158
LeftHand -2.469565 -0.000000 34.423098
LeftHandThumb1 -26.253704 0.000000 33.147579
Head 13.167671 -2.641236 0.978460
2945
root 0.274304 32.859788 -2.493816 6.531583 -9.670075 1.185312
RightUpLeg -17.897968 -11.700420 -2.971108
RightLeg 82.783566 -0.000000 -0.000000
RightFoot 0.128287 -9.801437 7.877319
RightToeBase -4.080087 -0.000000 0.000000
LeftUpLeg -1.732712 2.184876 -10.426637
LeftLeg 0.667523 -0.000000 -0.000000
LeftFoot -12.521194 9.782394 -5.890549
LeftToeBase 11.417086 -0.000000 -0.000000
Spine -8.545838 -1.860029 -4.058663
RightShoulder -17.564727 -16.820419 -19.925040
RightArm 24.779897 21.404879 54.145200
RightForeArm -4.429303 -0.000000 21.900352
RightHand 11.455261 -0.000000 1.060525
RightHandThumb1 -24.326973 -0.000000 -32.862282
LeftShoulder -21.987905 5.635260 25.380840
LeftArm 7.669450 -42.260707 -51.429121
LeftForeArm 10.495556 -0.000000 66.641144
LeftHand -2.377239 -0.000000 34.327390
LeftHandThumb1 -26.253704 0.000000 33.147579
Head 13.159934 -2.649733 0.988645
2946
root 0.276711 32.859176 -2.490261 6.529121 -9.708520 1.190558
RightUpLeg -17.900075 -11.795426 -2.981938
RightLeg 82.797075 -0.000000 -0.000000
RightFoot 0.086339 -9.773168 7.974184
RightToeBase -3.833520 -0.000000 0.000000
LeftUpLeg -1.738689 2.273894 -10.439250
LeftLeg 0.689663 -0.000000 -0.000000
LeftFoot -12.538141 9.715551 -5.904852
LeftToeBase 11.431896 -0.000000 -0.000000
Spine -8.552892 -1.841779 -4.064351
RightShoulder -17.558852 -16.811566 -19.932385
RightArm 24.780615 21.409583 54.141522
RightForeArm -4.436636 -0.000000 21.912574
RightHand 11.420413 -0.000000 1.059418
RightHandThumb1 -24.326973 -0.000000 -32.862282
LeftShoulder -22.010220 5.628280 25.372597
LeftArm 7.639119 -42.301348 -51.401282
LeftForeArm 10.518021 -0.000000 66.631787
LeftHand -2.402594 -0.000000 34.358081
LeftHandThumb1 -26.253704 0.000000 33.147579
Head 13.161601 -2.632836 0.982684
